***************************************************************
 
http://www.torrentforce.org/imghost/3/greyshadow_tfbanner.png

***************************************************************
 
http://www.torrentforce.org/imghost/4/greyshadow_husk.jpg

***************************************************************

FILM TITLE:  Husk (2011)

***************************************************************

Genre:  Drama | Horror | Thriller   

Release:  21st March 2011 

Country:  USA

Language:  English

Plot:
A group of friends stranded near a desolate cornfield find shelter 
in an old farmhouse, though they soon discover the dwelling is the 
center of a supernatural ritual.

IMDB Rating:  5/10 (2,041 votes)
 
http://www.imdb.com/title/tt1504403/ 

****************************************************************
 
http://www.imdb.com/rg/VIDEO_PLAY/LINK//video/screenplay/vi2472450585/ 

****************************************************************
 
http://www.torrentforce.org/imghost/4/greyshadow_husk720.jpg 
http://www.torrentforce.org/imghost/4/greyshadow_husk7205nls81uek0.jpg 
http://www.torrentforce.org/imghost/4/greyshadow_husk720rhbz90rz9d.jpg 
http://www.torrentforce.org/imghost/4/greyshadow_husk7200mey9anix1.jpg

****************************************************************

[IMG]http://www.torrentforce.org/imghost/2/greyshadow_mediainfo.png[/IMG]
General
Complete name                    : Husk 2011 720p BRRip XviD ac3 (avi) [TFRG].avi
Format                           : AVI
Format/Info                      : Audio Video Interleave
File size                        : 1.91 GiB
Duration                         : 1h 23mn
Overall bit rate                 : 3296 Kbps
Writing library                  : VirtualDub build 32842/release

Video
ID                               : 0
Format                           : MPEG-4 Visual
Format profile                   : Simple@L5
Format settings, BVOP            : No
Format settings, QPel            : No
Format settings, GMC             : No warppoints
Format settings, Matrix          : Default (H.263)
Codec ID                         : XVID
Codec ID/Hint                    : XviD
Duration                         : 1h 23mn
Bit rate                         : 2839 Kbps
Width                            : 1280 pixels
Height                           : 720 pixels
Display aspect ratio             : 16:9
Frame rate                       : 23.976 fps
Color space                      : YUV
Chroma subsampling               : 4:2:0
Bit depth                        : 8 bits
Scan type                        : Progressive
Compression mode                 : Lossy
Bits/(Pixel*Frame)               : 0.128
Stream size                      : 1.65 GiB (86%)
Writing library                  : XviD 64

Audio
ID                               : 1
Format                           : AC-3
Format/Info                      : Audio Coding 3
Mode extension                   : CM (complete main)
Codec ID                         : 2000
Duration                         : 1h 23mn
Bit rate mode                    : Constant
Bit rate                         : 448 Kbps
Channel(s)                       : 6 channels
Channel positions                : Front: L C R, Side: L R, LFE
Sampling rate                    : 48.0 KHz
Bit depth                        : 16 bits
Compression mode                 : Lossy
Stream size                      : 266 MiB (14%)
Alignment                        : Aligned on interleaves
Interleave, duration             : 42 ms (1.00 video frame)
Interleave, preload duration     : 512 ms

****************************************************************

Video Source:  Husk 2011 1080p GER Blu-ray AVC DTS-HD MA5.1 (22.05GB)

Thanks:  davie1888 (hd-torrents.org)

****************************************************************

I provide a small sample, so please download this to check your 
compatibility first if you are unsure.

****************************************************************

A big thanks to all the sites out there who care and share and
who make it possible for you to download this torrent for free.

Greetz to Ripwyn, mustang, noir, Blackjesus and all the other 
outstanding members of our community of file sharers, and a 
special mention to our friends at 1337x.  

****************************************************************